ISO-10303-21;
HEADER;
/* Generated by software containing ST-Developer
 * from STEP Tools, Inc. (www.steptools.com) 
 */

FILE_DESCRIPTION(
/* description */ (''),
/* implementation_level */ '2;1');

FILE_NAME(
/* name */ 'BTT Eddy Mount.step',
/* time_stamp */ '2026-08-05T03:36:15+02:00',
/* author */ (''),
/* organization */ (''),
/* preprocessor_version */ 'ST-DEVELOPER v20.1',
/* originating_system */ 'Autodesk Translation Framework v15.8.0.0',
/* authorisation */ '');

FILE_SCHEMA (('AUTOMOTIVE_DESIGN { 1 0 10303 214 3 1 1 }'));
ENDSEC;

DATA;
#10=MECHANICAL_DESIGN_GEOMETRIC_PRESENTATION_REPRESENTATION('',(#13),#871);
#11=SHAPE_REPRESENTATION_RELATIONSHIP('SRR','None',#878,#12);
#12=ADVANCED_BREP_SHAPE_REPRESENTATION('',(#14),#870);
#13=STYLED_ITEM('',(#887),#14);
#14=MANIFOLD_SOLID_BREP('Body1',#507);
#15=FACE_BOUND('',#106,.T.);
#16=FACE_BOUND('',#107,.T.);
#17=FACE_BOUND('',#108,.T.);
#18=FACE_BOUND('',#109,.T.);
#19=FACE_BOUND('',#122,.T.);
#20=FACE_BOUND('',#123,.T.);
#21=FACE_BOUND('',#124,.T.);
#22=FACE_BOUND('',#125,.T.);
#23=CYLINDRICAL_SURFACE('',#537,3.2);
#24=CYLINDRICAL_SURFACE('',#540,3.2);
#25=CYLINDRICAL_SURFACE('',#562,4.5);
#26=CYLINDRICAL_SURFACE('',#564,4.5);
#27=CYLINDRICAL_SURFACE('',#571,1.75000000000001);
#28=CYLINDRICAL_SURFACE('',#572,1.75);
#29=CYLINDRICAL_SURFACE('',#573,2.25);
#30=CYLINDRICAL_SURFACE('',#574,2.25);
#31=CIRCLE('',#523,3.2);
#32=CIRCLE('',#524,2.4);
#33=CIRCLE('',#527,3.2);
#34=CIRCLE('',#528,2.40000000000001);
#35=CIRCLE('',#531,4.5);
#36=CIRCLE('',#532,3.70000000000001);
#37=CIRCLE('',#535,4.5);
#38=CIRCLE('',#536,3.69999999999999);
#39=CIRCLE('',#538,3.2);
#40=CIRCLE('',#541,3.2);
#41=CIRCLE('',#544,1.75000000000001);
#42=CIRCLE('',#545,1.75);
#43=CIRCLE('',#546,2.25);
#44=CIRCLE('',#547,2.25);
#45=CIRCLE('',#550,4.5);
#46=CIRCLE('',#551,3.70000000000001);
#47=CIRCLE('',#554,4.5);
#48=CIRCLE('',#555,3.70000000000001);
#49=CIRCLE('',#558,2.4);
#50=CIRCLE('',#561,2.40000000000002);
#51=CIRCLE('',#566,1.75000000000001);
#52=CIRCLE('',#567,1.75);
#53=CIRCLE('',#568,2.25);
#54=CIRCLE('',#569,2.25);
#55=CONICAL_SURFACE('',#522,2.8,0.785398163397459);
#56=CONICAL_SURFACE('',#526,2.8,0.785398163397437);
#57=CONICAL_SURFACE('',#530,4.1,0.785398163397441);
#58=CONICAL_SURFACE('',#534,4.1,0.785398163397463);
#59=CONICAL_SURFACE('',#549,4.1,0.78539816339743);
#60=CONICAL_SURFACE('',#553,4.1,0.785398163397448);
#61=CONICAL_SURFACE('',#557,2.8,0.785398163397454);
#62=CONICAL_SURFACE('',#560,2.80000000000001,0.785398163397433);
#63=FACE_OUTER_BOUND('',#93,.T.);
#64=FACE_OUTER_BOUND('',#94,.T.);
#65=FACE_OUTER_BOUND('',#95,.T.);
#66=FACE_OUTER_BOUND('',#96,.T.);
#67=FACE_OUTER_BOUND('',#97,.T.);
#68=FACE_OUTER_BOUND('',#98,.T.);
#69=FACE_OUTER_BOUND('',#99,.T.);
#70=FACE_OUTER_BOUND('',#100,.T.);
#71=FACE_OUTER_BOUND('',#101,.T.);
#72=FACE_OUTER_BOUND('',#102,.T.);
#73=FACE_OUTER_BOUND('',#103,.T.);
#74=FACE_OUTER_BOUND('',#104,.T.);
#75=FACE_OUTER_BOUND('',#105,.T.);
#76=FACE_OUTER_BOUND('',#110,.T.);
#77=FACE_OUTER_BOUND('',#111,.T.);
#78=FACE_OUTER_BOUND('',#112,.T.);
#79=FACE_OUTER_BOUND('',#113,.T.);
#80=FACE_OUTER_BOUND('',#114,.T.);
#81=FACE_OUTER_BOUND('',#115,.T.);
#82=FACE_OUTER_BOUND('',#116,.T.);
#83=FACE_OUTER_BOUND('',#117,.T.);
#84=FACE_OUTER_BOUND('',#118,.T.);
#85=FACE_OUTER_BOUND('',#119,.T.);
#86=FACE_OUTER_BOUND('',#120,.T.);
#87=FACE_OUTER_BOUND('',#121,.T.);
#88=FACE_OUTER_BOUND('',#126,.T.);
#89=FACE_OUTER_BOUND('',#127,.T.);
#90=FACE_OUTER_BOUND('',#128,.T.);
#91=FACE_OUTER_BOUND('',#129,.T.);
#92=FACE_OUTER_BOUND('',#130,.T.);
#93=EDGE_LOOP('',(#327,#328,#329,#330));
#94=EDGE_LOOP('',(#331,#332,#333,#334));
#95=EDGE_LOOP('',(#335,#336,#337,#338));
#96=EDGE_LOOP('',(#339,#340,#341,#342));
#97=EDGE_LOOP('',(#343,#344,#345,#346));
#98=EDGE_LOOP('',(#347,#348,#349,#350));
#99=EDGE_LOOP('',(#351,#352,#353,#354));
#100=EDGE_LOOP('',(#355,#356,#357,#358));
#101=EDGE_LOOP('',(#359,#360,#361,#362));
#102=EDGE_LOOP('',(#363,#364,#365,#366));
#103=EDGE_LOOP('',(#367,#368,#369,#370));
#104=EDGE_LOOP('',(#371,#372,#373,#374));
#105=EDGE_LOOP('',(#375,#376,#377,#378,#379,#380,#381,#382));
#106=EDGE_LOOP('',(#383));
#107=EDGE_LOOP('',(#384));
#108=EDGE_LOOP('',(#385));
#109=EDGE_LOOP('',(#386));
#110=EDGE_LOOP('',(#387,#388,#389,#390));
#111=EDGE_LOOP('',(#391,#392,#393,#394));
#112=EDGE_LOOP('',(#395,#396,#397,#398));
#113=EDGE_LOOP('',(#399,#400,#401,#402));
#114=EDGE_LOOP('',(#403,#404,#405,#406));
#115=EDGE_LOOP('',(#407,#408,#409,#410));
#116=EDGE_LOOP('',(#411,#412,#413,#414));
#117=EDGE_LOOP('',(#415,#416,#417,#418));
#118=EDGE_LOOP('',(#419,#420,#421,#422));
#119=EDGE_LOOP('',(#423,#424,#425,#426));
#120=EDGE_LOOP('',(#427,#428,#429,#430));
#121=EDGE_LOOP('',(#431,#432,#433,#434,#435,#436,#437,#438));
#122=EDGE_LOOP('',(#439));
#123=EDGE_LOOP('',(#440));
#124=EDGE_LOOP('',(#441));
#125=EDGE_LOOP('',(#442));
#126=EDGE_LOOP('',(#443,#444,#445,#446));
#127=EDGE_LOOP('',(#447,#448,#449,#450));
#128=EDGE_LOOP('',(#451,#452,#453,#454));
#129=EDGE_LOOP('',(#455,#456,#457,#458));
#130=EDGE_LOOP('',(#459,#460,#461,#462));
#131=LINE('',#733,#175);
#132=LINE('',#735,#176);
#133=LINE('',#737,#177);
#134=LINE('',#738,#178);
#135=LINE('',#743,#179);
#136=LINE('',#748,#180);
#137=LINE('',#749,#181);
#138=LINE('',#750,#182);
#139=LINE('',#755,#183);
#140=LINE('',#760,#184);
#141=LINE('',#761,#185);
#142=LINE('',#762,#186);
#143=LINE('',#767,#187);
#144=LINE('',#772,#188);
#145=LINE('',#773,#189);
#146=LINE('',#774,#190);
#147=LINE('',#780,#191);
#148=LINE('',#783,#192);
#149=LINE('',#786,#193);
#150=LINE('',#787,#194);
#151=LINE('',#790,#195);
#152=LINE('',#794,#196);
#153=LINE('',#795,#197);
#154=LINE('',#807,#198);
#155=LINE('',#809,#199);
#156=LINE('',#810,#200);
#157=LINE('',#815,#201);
#158=LINE('',#820,#202);
#159=LINE('',#821,#203);
#160=LINE('',#822,#204);
#161=LINE('',#827,#205);
#162=LINE('',#831,#206);
#163=LINE('',#832,#207);
#164=LINE('',#833,#208);
#165=LINE('',#836,#209);
#166=LINE('',#840,#210);
#167=LINE('',#841,#211);
#168=LINE('',#845,#212);
#169=LINE('',#846,#213);
#170=LINE('',#848,#214);
#171=LINE('',#861,#215);
#172=LINE('',#863,#216);
#173=LINE('',#865,#217);
#174=LINE('',#867,#218);
#175=VECTOR('',#579,10.);
#176=VECTOR('',#580,10.);
#177=VECTOR('',#581,10.);
#178=VECTOR('',#582,10.);
#179=VECTOR('',#587,10.);
#180=VECTOR('',#592,10.);
#181=VECTOR('',#593,10.);
#182=VECTOR('',#594,10.);
#183=VECTOR('',#599,10.);
#184=VECTOR('',#604,10.);
#185=VECTOR('',#605,10.);
#186=VECTOR('',#606,10.);
#187=VECTOR('',#611,10.);
#188=VECTOR('',#616,10.);
#189=VECTOR('',#617,10.);
#190=VECTOR('',#618,10.);
#191=VECTOR('',#627,10.);
#192=VECTOR('',#630,10.);
#193=VECTOR('',#633,10.);
#194=VECTOR('',#634,10.);
#195=VECTOR('',#637,10.);
#196=VECTOR('',#642,10.);
#197=VECTOR('',#643,10.);
#198=VECTOR('',#656,10.);
#199=VECTOR('',#657,10.);
#200=VECTOR('',#658,10.);
#201=VECTOR('',#663,10.);
#202=VECTOR('',#668,10.);
#203=VECTOR('',#669,10.);
#204=VECTOR('',#670,10.);
#205=VECTOR('',#675,10.);
#206=VECTOR('',#680,10.);
#207=VECTOR('',#681,10.);
#208=VECTOR('',#682,10.);
#209=VECTOR('',#685,10.);
#210=VECTOR('',#690,10.);
#211=VECTOR('',#691,10.);
#212=VECTOR('',#698,10.);
#213=VECTOR('',#699,10.);
#214=VECTOR('',#702,10.);
#215=VECTOR('',#719,1.75000000000001);
#216=VECTOR('',#722,1.75);
#217=VECTOR('',#725,2.25);
#218=VECTOR('',#728,2.25);
#219=VERTEX_POINT('',#731);
#220=VERTEX_POINT('',#732);
#221=VERTEX_POINT('',#734);
#222=VERTEX_POINT('',#736);
#223=VERTEX_POINT('',#740);
#224=VERTEX_POINT('',#742);
#225=VERTEX_POINT('',#746);
#226=VERTEX_POINT('',#747);
#227=VERTEX_POINT('',#752);
#228=VERTEX_POINT('',#754);
#229=VERTEX_POINT('',#758);
#230=VERTEX_POINT('',#759);
#231=VERTEX_POINT('',#764);
#232=VERTEX_POINT('',#766);
#233=VERTEX_POINT('',#770);
#234=VERTEX_POINT('',#771);
#235=VERTEX_POINT('',#779);
#236=VERTEX_POINT('',#781);
#237=VERTEX_POINT('',#785);
#238=VERTEX_POINT('',#789);
#239=VERTEX_POINT('',#793);
#240=VERTEX_POINT('',#797);
#241=VERTEX_POINT('',#799);
#242=VERTEX_POINT('',#801);
#243=VERTEX_POINT('',#803);
#244=VERTEX_POINT('',#806);
#245=VERTEX_POINT('',#808);
#246=VERTEX_POINT('',#812);
#247=VERTEX_POINT('',#814);
#248=VERTEX_POINT('',#818);
#249=VERTEX_POINT('',#819);
#250=VERTEX_POINT('',#824);
#251=VERTEX_POINT('',#826);
#252=VERTEX_POINT('',#830);
#253=VERTEX_POINT('',#835);
#254=VERTEX_POINT('',#839);
#255=VERTEX_POINT('',#851);
#256=VERTEX_POINT('',#853);
#257=VERTEX_POINT('',#855);
#258=VERTEX_POINT('',#857);
#259=EDGE_CURVE('',#219,#220,#131,.T.);
#260=EDGE_CURVE('',#220,#221,#132,.T.);
#261=EDGE_CURVE('',#221,#222,#133,.T.);
#262=EDGE_CURVE('',#222,#219,#134,.T.);
#263=EDGE_CURVE('',#219,#223,#31,.T.);
#264=EDGE_CURVE('',#223,#224,#135,.T.);
#265=EDGE_CURVE('',#224,#220,#32,.T.);
#266=EDGE_CURVE('',#225,#226,#136,.T.);
#267=EDGE_CURVE('',#226,#224,#137,.T.);
#268=EDGE_CURVE('',#223,#225,#138,.T.);
#269=EDGE_CURVE('',#225,#227,#33,.T.);
#270=EDGE_CURVE('',#227,#228,#139,.T.);
#271=EDGE_CURVE('',#228,#226,#34,.T.);
#272=EDGE_CURVE('',#229,#230,#140,.T.);
#273=EDGE_CURVE('',#230,#228,#141,.T.);
#274=EDGE_CURVE('',#227,#229,#142,.T.);
#275=EDGE_CURVE('',#229,#231,#35,.T.);
#276=EDGE_CURVE('',#231,#232,#143,.T.);
#277=EDGE_CURVE('',#232,#230,#36,.T.);
#278=EDGE_CURVE('',#233,#234,#144,.T.);
#279=EDGE_CURVE('',#234,#232,#145,.T.);
#280=EDGE_CURVE('',#231,#233,#146,.T.);
#281=EDGE_CURVE('',#233,#222,#37,.T.);
#282=EDGE_CURVE('',#221,#234,#38,.T.);
#283=EDGE_CURVE('',#225,#235,#147,.T.);
#284=EDGE_CURVE('',#236,#235,#39,.T.);
#285=EDGE_CURVE('',#236,#227,#148,.T.);
#286=EDGE_CURVE('',#237,#223,#149,.T.);
#287=EDGE_CURVE('',#235,#237,#150,.T.);
#288=EDGE_CURVE('',#219,#238,#151,.T.);
#289=EDGE_CURVE('',#237,#238,#40,.T.);
#290=EDGE_CURVE('',#239,#222,#152,.T.);
#291=EDGE_CURVE('',#238,#239,#153,.T.);
#292=EDGE_CURVE('',#240,#240,#41,.T.);
#293=EDGE_CURVE('',#241,#241,#42,.T.);
#294=EDGE_CURVE('',#242,#242,#43,.T.);
#295=EDGE_CURVE('',#243,#243,#44,.T.);
#296=EDGE_CURVE('',#239,#244,#154,.T.);
#297=EDGE_CURVE('',#244,#245,#155,.T.);
#298=EDGE_CURVE('',#245,#238,#156,.T.);
#299=EDGE_CURVE('',#239,#246,#45,.T.);
#300=EDGE_CURVE('',#246,#247,#157,.T.);
#301=EDGE_CURVE('',#247,#244,#46,.T.);
#302=EDGE_CURVE('',#248,#249,#158,.T.);
#303=EDGE_CURVE('',#249,#247,#159,.T.);
#304=EDGE_CURVE('',#246,#248,#160,.T.);
#305=EDGE_CURVE('',#248,#250,#47,.T.);
#306=EDGE_CURVE('',#250,#251,#161,.T.);
#307=EDGE_CURVE('',#251,#249,#48,.T.);
#308=EDGE_CURVE('',#236,#252,#162,.T.);
#309=EDGE_CURVE('',#252,#251,#163,.T.);
#310=EDGE_CURVE('',#250,#236,#164,.T.);
#311=EDGE_CURVE('',#235,#253,#165,.T.);
#312=EDGE_CURVE('',#253,#252,#49,.T.);
#313=EDGE_CURVE('',#237,#254,#166,.T.);
#314=EDGE_CURVE('',#254,#253,#167,.T.);
#315=EDGE_CURVE('',#245,#254,#50,.T.);
#316=EDGE_CURVE('',#229,#250,#168,.T.);
#317=EDGE_CURVE('',#248,#231,#169,.T.);
#318=EDGE_CURVE('',#233,#246,#170,.T.);
#319=EDGE_CURVE('',#255,#255,#51,.T.);
#320=EDGE_CURVE('',#256,#256,#52,.T.);
#321=EDGE_CURVE('',#257,#257,#53,.T.);
#322=EDGE_CURVE('',#258,#258,#54,.T.);
#323=EDGE_CURVE('',#255,#240,#171,.T.);
#324=EDGE_CURVE('',#256,#241,#172,.T.);
#325=EDGE_CURVE('',#257,#242,#173,.T.);
#326=EDGE_CURVE('',#258,#243,#174,.T.);
#327=ORIENTED_EDGE('',*,*,#259,.T.);
#328=ORIENTED_EDGE('',*,*,#260,.T.);
#329=ORIENTED_EDGE('',*,*,#261,.T.);
#330=ORIENTED_EDGE('',*,*,#262,.T.);
#331=ORIENTED_EDGE('',*,*,#259,.F.);
#332=ORIENTED_EDGE('',*,*,#263,.T.);
#333=ORIENTED_EDGE('',*,*,#264,.T.);
#334=ORIENTED_EDGE('',*,*,#265,.T.);
#335=ORIENTED_EDGE('',*,*,#266,.T.);
#336=ORIENTED_EDGE('',*,*,#267,.T.);
#337=ORIENTED_EDGE('',*,*,#264,.F.);
#338=ORIENTED_EDGE('',*,*,#268,.T.);
#339=ORIENTED_EDGE('',*,*,#266,.F.);
#340=ORIENTED_EDGE('',*,*,#269,.T.);
#341=ORIENTED_EDGE('',*,*,#270,.T.);
#342=ORIENTED_EDGE('',*,*,#271,.T.);
#343=ORIENTED_EDGE('',*,*,#272,.T.);
#344=ORIENTED_EDGE('',*,*,#273,.T.);
#345=ORIENTED_EDGE('',*,*,#270,.F.);
#346=ORIENTED_EDGE('',*,*,#274,.T.);
#347=ORIENTED_EDGE('',*,*,#272,.F.);
#348=ORIENTED_EDGE('',*,*,#275,.T.);
#349=ORIENTED_EDGE('',*,*,#276,.T.);
#350=ORIENTED_EDGE('',*,*,#277,.T.);
#351=ORIENTED_EDGE('',*,*,#278,.T.);
#352=ORIENTED_EDGE('',*,*,#279,.T.);
#353=ORIENTED_EDGE('',*,*,#276,.F.);
#354=ORIENTED_EDGE('',*,*,#280,.T.);
#355=ORIENTED_EDGE('',*,*,#278,.F.);
#356=ORIENTED_EDGE('',*,*,#281,.T.);
#357=ORIENTED_EDGE('',*,*,#261,.F.);
#358=ORIENTED_EDGE('',*,*,#282,.T.);
#359=ORIENTED_EDGE('',*,*,#269,.F.);
#360=ORIENTED_EDGE('',*,*,#283,.T.);
#361=ORIENTED_EDGE('',*,*,#284,.F.);
#362=ORIENTED_EDGE('',*,*,#285,.T.);
#363=ORIENTED_EDGE('',*,*,#268,.F.);
#364=ORIENTED_EDGE('',*,*,#286,.F.);
#365=ORIENTED_EDGE('',*,*,#287,.F.);
#366=ORIENTED_EDGE('',*,*,#283,.F.);
#367=ORIENTED_EDGE('',*,*,#263,.F.);
#368=ORIENTED_EDGE('',*,*,#288,.T.);
#369=ORIENTED_EDGE('',*,*,#289,.F.);
#370=ORIENTED_EDGE('',*,*,#286,.T.);
#371=ORIENTED_EDGE('',*,*,#262,.F.);
#372=ORIENTED_EDGE('',*,*,#290,.F.);
#373=ORIENTED_EDGE('',*,*,#291,.F.);
#374=ORIENTED_EDGE('',*,*,#288,.F.);
#375=ORIENTED_EDGE('',*,*,#260,.F.);
#376=ORIENTED_EDGE('',*,*,#265,.F.);
#377=ORIENTED_EDGE('',*,*,#267,.F.);
#378=ORIENTED_EDGE('',*,*,#271,.F.);
#379=ORIENTED_EDGE('',*,*,#273,.F.);
#380=ORIENTED_EDGE('',*,*,#277,.F.);
#381=ORIENTED_EDGE('',*,*,#279,.F.);
#382=ORIENTED_EDGE('',*,*,#282,.F.);
#383=ORIENTED_EDGE('',*,*,#292,.F.);
#384=ORIENTED_EDGE('',*,*,#293,.F.);
#385=ORIENTED_EDGE('',*,*,#294,.F.);
#386=ORIENTED_EDGE('',*,*,#295,.F.);
#387=ORIENTED_EDGE('',*,*,#296,.T.);
#388=ORIENTED_EDGE('',*,*,#297,.T.);
#389=ORIENTED_EDGE('',*,*,#298,.T.);
#390=ORIENTED_EDGE('',*,*,#291,.T.);
#391=ORIENTED_EDGE('',*,*,#296,.F.);
#392=ORIENTED_EDGE('',*,*,#299,.T.);
#393=ORIENTED_EDGE('',*,*,#300,.T.);
#394=ORIENTED_EDGE('',*,*,#301,.T.);
#395=ORIENTED_EDGE('',*,*,#302,.T.);
#396=ORIENTED_EDGE('',*,*,#303,.T.);
#397=ORIENTED_EDGE('',*,*,#300,.F.);
#398=ORIENTED_EDGE('',*,*,#304,.T.);
#399=ORIENTED_EDGE('',*,*,#302,.F.);
#400=ORIENTED_EDGE('',*,*,#305,.T.);
#401=ORIENTED_EDGE('',*,*,#306,.T.);
#402=ORIENTED_EDGE('',*,*,#307,.T.);
#403=ORIENTED_EDGE('',*,*,#308,.T.);
#404=ORIENTED_EDGE('',*,*,#309,.T.);
#405=ORIENTED_EDGE('',*,*,#306,.F.);
#406=ORIENTED_EDGE('',*,*,#310,.T.);
#407=ORIENTED_EDGE('',*,*,#308,.F.);
#408=ORIENTED_EDGE('',*,*,#284,.T.);
#409=ORIENTED_EDGE('',*,*,#311,.T.);
#410=ORIENTED_EDGE('',*,*,#312,.T.);
#411=ORIENTED_EDGE('',*,*,#313,.T.);
#412=ORIENTED_EDGE('',*,*,#314,.T.);
#413=ORIENTED_EDGE('',*,*,#311,.F.);
#414=ORIENTED_EDGE('',*,*,#287,.T.);
#415=ORIENTED_EDGE('',*,*,#313,.F.);
#416=ORIENTED_EDGE('',*,*,#289,.T.);
#417=ORIENTED_EDGE('',*,*,#298,.F.);
#418=ORIENTED_EDGE('',*,*,#315,.T.);
#419=ORIENTED_EDGE('',*,*,#275,.F.);
#420=ORIENTED_EDGE('',*,*,#316,.T.);
#421=ORIENTED_EDGE('',*,*,#305,.F.);
#422=ORIENTED_EDGE('',*,*,#317,.T.);
#423=ORIENTED_EDGE('',*,*,#280,.F.);
#424=ORIENTED_EDGE('',*,*,#317,.F.);
#425=ORIENTED_EDGE('',*,*,#304,.F.);
#426=ORIENTED_EDGE('',*,*,#318,.F.);
#427=ORIENTED_EDGE('',*,*,#281,.F.);
#428=ORIENTED_EDGE('',*,*,#318,.T.);
#429=ORIENTED_EDGE('',*,*,#299,.F.);
#430=ORIENTED_EDGE('',*,*,#290,.T.);
#431=ORIENTED_EDGE('',*,*,#297,.F.);
#432=ORIENTED_EDGE('',*,*,#301,.F.);
#433=ORIENTED_EDGE('',*,*,#303,.F.);
#434=ORIENTED_EDGE('',*,*,#307,.F.);
#435=ORIENTED_EDGE('',*,*,#309,.F.);
#436=ORIENTED_EDGE('',*,*,#312,.F.);
#437=ORIENTED_EDGE('',*,*,#314,.F.);
#438=ORIENTED_EDGE('',*,*,#315,.F.);
#439=ORIENTED_EDGE('',*,*,#319,.T.);
#440=ORIENTED_EDGE('',*,*,#320,.T.);
#441=ORIENTED_EDGE('',*,*,#321,.T.);
#442=ORIENTED_EDGE('',*,*,#322,.T.);
#443=ORIENTED_EDGE('',*,*,#274,.F.);
#444=ORIENTED_EDGE('',*,*,#285,.F.);
#445=ORIENTED_EDGE('',*,*,#310,.F.);
#446=ORIENTED_EDGE('',*,*,#316,.F.);
#447=ORIENTED_EDGE('',*,*,#319,.F.);
#448=ORIENTED_EDGE('',*,*,#323,.T.);
#449=ORIENTED_EDGE('',*,*,#292,.T.);
#450=ORIENTED_EDGE('',*,*,#323,.F.);
#451=ORIENTED_EDGE('',*,*,#320,.F.);
#452=ORIENTED_EDGE('',*,*,#324,.T.);
#453=ORIENTED_EDGE('',*,*,#293,.T.);
#454=ORIENTED_EDGE('',*,*,#324,.F.);
#455=ORIENTED_EDGE('',*,*,#321,.F.);
#456=ORIENTED_EDGE('',*,*,#325,.T.);
#457=ORIENTED_EDGE('',*,*,#294,.T.);
#458=ORIENTED_EDGE('',*,*,#325,.F.);
#459=ORIENTED_EDGE('',*,*,#322,.F.);
#460=ORIENTED_EDGE('',*,*,#326,.T.);
#461=ORIENTED_EDGE('',*,*,#295,.T.);
#462=ORIENTED_EDGE('',*,*,#326,.F.);
#463=PLANE('',#521);
#464=PLANE('',#525);
#465=PLANE('',#529);
#466=PLANE('',#533);
#467=PLANE('',#539);
#468=PLANE('',#542);
#469=PLANE('',#543);
#470=PLANE('',#548);
#471=PLANE('',#552);
#472=PLANE('',#556);
#473=PLANE('',#559);
#474=PLANE('',#563);
#475=PLANE('',#565);
#476=PLANE('',#570);
#477=ADVANCED_FACE('',(#63),#463,.T.);
#478=ADVANCED_FACE('',(#64),#55,.T.);
#479=ADVANCED_FACE('',(#65),#464,.T.);
#480=ADVANCED_FACE('',(#66),#56,.T.);
#481=ADVANCED_FACE('',(#67),#465,.T.);
#482=ADVANCED_FACE('',(#68),#57,.T.);
#483=ADVANCED_FACE('',(#69),#466,.T.);
#484=ADVANCED_FACE('',(#70),#58,.T.);
#485=ADVANCED_FACE('',(#71),#23,.T.);
#486=ADVANCED_FACE('',(#72),#467,.T.);
#487=ADVANCED_FACE('',(#73),#24,.T.);
#488=ADVANCED_FACE('',(#74),#468,.T.);
#489=ADVANCED_FACE('',(#75,#15,#16,#17,#18),#469,.F.);
#490=ADVANCED_FACE('',(#76),#470,.T.);
#491=ADVANCED_FACE('',(#77),#59,.T.);
#492=ADVANCED_FACE('',(#78),#471,.T.);
#493=ADVANCED_FACE('',(#79),#60,.T.);
#494=ADVANCED_FACE('',(#80),#472,.T.);
#495=ADVANCED_FACE('',(#81),#61,.T.);
#496=ADVANCED_FACE('',(#82),#473,.T.);
#497=ADVANCED_FACE('',(#83),#62,.T.);
#498=ADVANCED_FACE('',(#84),#25,.T.);
#499=ADVANCED_FACE('',(#85),#474,.T.);
#500=ADVANCED_FACE('',(#86),#26,.T.);
#501=ADVANCED_FACE('',(#87,#19,#20,#21,#22),#475,.T.);
#502=ADVANCED_FACE('',(#88),#476,.T.);
#503=ADVANCED_FACE('',(#89),#27,.F.);
#504=ADVANCED_FACE('',(#90),#28,.F.);
#505=ADVANCED_FACE('',(#91),#29,.F.);
#506=ADVANCED_FACE('',(#92),#30,.F.);
#507=CLOSED_SHELL('',(#477,#478,#479,#480,#481,#482,#483,#484,#485,#486,
#487,#488,#489,#490,#491,#492,#493,#494,#495,#496,#497,#498,#499,#500,#501,
#502,#503,#504,#505,#506));
#508=DERIVED_UNIT_ELEMENT(#510,1.);
#509=DERIVED_UNIT_ELEMENT(#873,-3.);
#510=(
MASS_UNIT()
NAMED_UNIT(*)
SI_UNIT(.KILO.,.GRAM.)
);
#511=DERIVED_UNIT((#508,#509));
#512=MEASURE_REPRESENTATION_ITEM('density measure',
POSITIVE_RATIO_MEASURE(7850.),#511);
#513=PROPERTY_DEFINITION_REPRESENTATION(#518,#515);
#514=PROPERTY_DEFINITION_REPRESENTATION(#519,#516);
#515=REPRESENTATION('material name',(#517),#870);
#516=REPRESENTATION('density',(#512),#870);
#517=DESCRIPTIVE_REPRESENTATION_ITEM('Steel','Steel');
#518=PROPERTY_DEFINITION('material property','material name',#880);
#519=PROPERTY_DEFINITION('material property','density of part',#880);
#520=AXIS2_PLACEMENT_3D('',#729,#575,#576);
#521=AXIS2_PLACEMENT_3D('',#730,#577,#578);
#522=AXIS2_PLACEMENT_3D('',#739,#583,#584);
#523=AXIS2_PLACEMENT_3D('',#741,#585,#586);
#524=AXIS2_PLACEMENT_3D('',#744,#588,#589);
#525=AXIS2_PLACEMENT_3D('',#745,#590,#591);
#526=AXIS2_PLACEMENT_3D('',#751,#595,#596);
#527=AXIS2_PLACEMENT_3D('',#753,#597,#598);
#528=AXIS2_PLACEMENT_3D('',#756,#600,#601);
#529=AXIS2_PLACEMENT_3D('',#757,#602,#603);
#530=AXIS2_PLACEMENT_3D('',#763,#607,#608);
#531=AXIS2_PLACEMENT_3D('',#765,#609,#610);
#532=AXIS2_PLACEMENT_3D('',#768,#612,#613);
#533=AXIS2_PLACEMENT_3D('',#769,#614,#615);
#534=AXIS2_PLACEMENT_3D('',#775,#619,#620);
#535=AXIS2_PLACEMENT_3D('',#776,#621,#622);
#536=AXIS2_PLACEMENT_3D('',#777,#623,#624);
#537=AXIS2_PLACEMENT_3D('',#778,#625,#626);
#538=AXIS2_PLACEMENT_3D('',#782,#628,#629);
#539=AXIS2_PLACEMENT_3D('',#784,#631,#632);
#540=AXIS2_PLACEMENT_3D('',#788,#635,#636);
#541=AXIS2_PLACEMENT_3D('',#791,#638,#639);
#542=AXIS2_PLACEMENT_3D('',#792,#640,#641);
#543=AXIS2_PLACEMENT_3D('',#796,#644,#645);
#544=AXIS2_PLACEMENT_3D('',#798,#646,#647);
#545=AXIS2_PLACEMENT_3D('',#800,#648,#649);
#546=AXIS2_PLACEMENT_3D('',#802,#650,#651);
#547=AXIS2_PLACEMENT_3D('',#804,#652,#653);
#548=AXIS2_PLACEMENT_3D('',#805,#654,#655);
#549=AXIS2_PLACEMENT_3D('',#811,#659,#660);
#550=AXIS2_PLACEMENT_3D('',#813,#661,#662);
#551=AXIS2_PLACEMENT_3D('',#816,#664,#665);
#552=AXIS2_PLACEMENT_3D('',#817,#666,#667);
#553=AXIS2_PLACEMENT_3D('',#823,#671,#672);
#554=AXIS2_PLACEMENT_3D('',#825,#673,#674);
#555=AXIS2_PLACEMENT_3D('',#828,#676,#677);
#556=AXIS2_PLACEMENT_3D('',#829,#678,#679);
#557=AXIS2_PLACEMENT_3D('',#834,#683,#684);
#558=AXIS2_PLACEMENT_3D('',#837,#686,#687);
#559=AXIS2_PLACEMENT_3D('',#838,#688,#689);
#560=AXIS2_PLACEMENT_3D('',#842,#692,#693);
#561=AXIS2_PLACEMENT_3D('',#843,#694,#695);
#562=AXIS2_PLACEMENT_3D('',#844,#696,#697);
#563=AXIS2_PLACEMENT_3D('',#847,#700,#701);
#564=AXIS2_PLACEMENT_3D('',#849,#703,#704);
#565=AXIS2_PLACEMENT_3D('',#850,#705,#706);
#566=AXIS2_PLACEMENT_3D('',#852,#707,#708);
#567=AXIS2_PLACEMENT_3D('',#854,#709,#710);
#568=AXIS2_PLACEMENT_3D('',#856,#711,#712);
#569=AXIS2_PLACEMENT_3D('',#858,#713,#714);
#570=AXIS2_PLACEMENT_3D('',#859,#715,#716);
#571=AXIS2_PLACEMENT_3D('',#860,#717,#718);
#572=AXIS2_PLACEMENT_3D('',#862,#720,#721);
#573=AXIS2_PLACEMENT_3D('',#864,#723,#724);
#574=AXIS2_PLACEMENT_3D('',#866,#726,#727);
#575=DIRECTION('axis',(0.,0.,1.));
#576=DIRECTION('refdir',(1.,0.,0.));
#577=DIRECTION('center_axis',(-0.707141897733098,-0.707071662895942,7.16354683391042E-16));
#578=DIRECTION('ref_axis',(1.0130281994144E-15,0.,1.));
#579=DIRECTION('',(0.707071662895942,-0.707141897733098,0.));
#580=DIRECTION('',(5.03130545380937E-20,1.01307850747173E-15,1.));
#581=DIRECTION('',(-0.707071662895942,0.707141897733098,0.));
#582=DIRECTION('',(-5.03130545380937E-20,-1.01307850747173E-15,-1.));
#583=DIRECTION('center_axis',(4.96635296221022E-5,0.999999998766767,0.));
#584=DIRECTION('ref_axis',(-0.707106780314519,3.51174185797079E-5,-0.707106781186548));
#585=DIRECTION('center_axis',(-4.96635296326725E-5,-0.999999998766767,1.01307850872109E-15));
#586=DIRECTION('ref_axis',(-0.707106780314519,3.51174185793348E-5,-0.707106781186548));
#587=DIRECTION('',(-3.51174185734472E-5,-0.707106780314515,0.707106781186552));
#588=DIRECTION('center_axis',(4.96635296326725E-5,0.999999998766767,-1.01307850872109E-15));
#589=DIRECTION('ref_axis',(-0.707106780314519,3.51174185802054E-5,-0.707106781186548));
#590=DIRECTION('center_axis',(-3.51174185809218E-5,-0.707106780314521,-0.707106781186547));
#591=DIRECTION('ref_axis',(-0.999999998766767,0.,4.96635295714259E-5));
#592=DIRECTION('',(-3.51174185812974E-5,-0.707106780314519,0.707106781186548));
#593=DIRECTION('',(-0.999999998766767,4.96635296326725E-5,3.00926553810506E-35));
#594=DIRECTION('',(0.999999998766767,-4.96635296326725E-5,-3.00926553810506E-35));
#595=DIRECTION('center_axis',(4.96635296332029E-5,0.999999998766767,0.));
#596=DIRECTION('ref_axis',(0.707106780314521,-3.51174185814434E-5,-0.707106781186546));
#597=DIRECTION('center_axis',(-4.96635296326725E-5,-0.999999998766767,1.01307850872109E-15));
#598=DIRECTION('ref_axis',(0.707106780314521,-3.51174185812973E-5,-0.707106781186546));
#599=DIRECTION('',(-0.707141897733094,-0.707071662895946,0.));
#600=DIRECTION('center_axis',(4.96635296326725E-5,0.999999998766767,-1.01307850872109E-15));
#601=DIRECTION('ref_axis',(0.707106780314521,-3.51174185816382E-5,-0.707106781186546));
#602=DIRECTION('center_axis',(0.707071662895939,-0.707141897733101,7.1635468339104E-16));
#603=DIRECTION('ref_axis',(1.01312882552397E-15,0.,-1.));
#604=DIRECTION('',(-0.707141897733101,-0.707071662895939,0.));
#605=DIRECTION('',(-5.03130545380937E-20,-1.01307850747173E-15,-1.));
#606=DIRECTION('',(5.03130545380937E-20,1.01307850747173E-15,1.));
#607=DIRECTION('center_axis',(4.9663529633203E-5,0.999999998766767,0.));
#608=DIRECTION('ref_axis',(0.70710678031452,-3.51174185797516E-5,0.707106781186547));
#609=DIRECTION('center_axis',(-4.96635296326725E-5,-0.999999998766767,1.01307850872109E-15));
#610=DIRECTION('ref_axis',(0.707106780314521,-3.51174185793784E-5,0.707106781186547));
#611=DIRECTION('',(-3.51174185812973E-5,-0.707106780314527,-0.70710678118654));
#612=DIRECTION('center_axis',(4.96635296326725E-5,0.999999998766767,-1.01307850872109E-15));
#613=DIRECTION('ref_axis',(0.707106780314521,-3.51174185802054E-5,0.707106781186547));
#614=DIRECTION('center_axis',(-3.51174185809216E-5,-0.707106780314518,0.70710678118655));
#615=DIRECTION('ref_axis',(0.999999998766767,0.,4.96635295714254E-5));
#616=DIRECTION('',(-3.51174185734468E-5,-0.707106780314522,-0.707106781186545));
#617=DIRECTION('',(0.999999998766767,-4.96635296326725E-5,-3.00926553810506E-35));
#618=DIRECTION('',(-0.999999998766767,4.96635296326725E-5,3.00926553810506E-35));
#619=DIRECTION('center_axis',(4.96635296221023E-5,0.999999998766767,0.));
#620=DIRECTION('ref_axis',(-0.707106780314522,3.51174185811639E-5,0.707106781186545));
#621=DIRECTION('center_axis',(-4.96635296326725E-5,-0.999999998766767,1.01307850872109E-15));
#622=DIRECTION('ref_axis',(-0.707106780314522,3.5117418580774E-5,0.707106781186545));
#623=DIRECTION('center_axis',(4.96635296326725E-5,0.999999998766767,-1.01307850872109E-15));
#624=DIRECTION('ref_axis',(-0.707106780314522,3.51174185816382E-5,0.707106781186545));
#625=DIRECTION('center_axis',(4.96635296318715E-5,0.999999998766767,-8.88178419700125E-16));
#626=DIRECTION('ref_axis',(0.707106780314521,-3.51174185812973E-5,-0.707106781186546));
#627=DIRECTION('',(4.96635296318715E-5,0.999999998766767,-8.88178419700125E-16));
#628=DIRECTION('center_axis',(4.96635296326725E-5,0.999999998766767,-1.01307850872109E-15));
#629=DIRECTION('ref_axis',(0.707106780314521,-3.51174185812973E-5,-0.707106781186546));
#630=DIRECTION('',(-4.96635296318715E-5,-0.999999998766767,8.88178419700125E-16));
#631=DIRECTION('center_axis',(-4.41100752658774E-20,-8.88178418604794E-16,
-1.));
#632=DIRECTION('ref_axis',(-0.999999998766767,4.96635296326725E-5,3.00926553810506E-35));
#633=DIRECTION('',(-4.96635296318715E-5,-0.999999998766767,8.88178419700125E-16));
#634=DIRECTION('',(-0.999999998766767,4.96635296326725E-5,3.00926553810506E-35));
#635=DIRECTION('center_axis',(4.96635296318715E-5,0.999999998766767,-8.88178419700125E-16));
#636=DIRECTION('ref_axis',(-0.707106780314519,3.51174185793348E-5,-0.707106781186548));
#637=DIRECTION('',(4.96635296318715E-5,0.999999998766767,-8.88178419700125E-16));
#638=DIRECTION('center_axis',(4.96635296326725E-5,0.999999998766767,-1.01307850872109E-15));
#639=DIRECTION('ref_axis',(-0.707106780314519,3.51174185793348E-5,-0.707106781186548));
#640=DIRECTION('center_axis',(-0.999999998766767,4.96635296318715E-5,8.1150863766079E-31));
#641=DIRECTION('ref_axis',(5.03130545380937E-20,1.01307850747173E-15,1.));
#642=DIRECTION('',(-4.96635296318715E-5,-0.999999998766767,8.88178419700125E-16));
#643=DIRECTION('',(5.03130545380937E-20,1.01307850747173E-15,1.));
#644=DIRECTION('center_axis',(4.96635296326725E-5,0.999999998766767,-1.01307850872109E-15));
#645=DIRECTION('ref_axis',(-0.999999998766767,4.96635296326725E-5,3.00926553810506E-35));
#646=DIRECTION('center_axis',(-4.96635296326725E-5,-0.999999998766767,1.01307850872109E-15));
#647=DIRECTION('ref_axis',(-0.999999998766767,4.96635296326725E-5,3.00926553810506E-35));
#648=DIRECTION('center_axis',(-4.96635296326725E-5,-0.999999998766767,1.01307850872109E-15));
#649=DIRECTION('ref_axis',(-0.999999998766767,4.96635296326725E-5,3.00926553810506E-35));
#650=DIRECTION('center_axis',(-4.96635296326725E-5,-0.999999998766767,1.01307850872109E-15));
#651=DIRECTION('ref_axis',(-0.999999998766767,4.96635296326725E-5,3.00926553810506E-35));
#652=DIRECTION('center_axis',(-4.96635296326725E-5,-0.999999998766767,1.01307850872109E-15));
#653=DIRECTION('ref_axis',(-0.999999998766767,4.96635296326725E-5,3.00926553810506E-35));
#654=DIRECTION('center_axis',(-0.707071662895944,0.707141897733096,-7.16354683391035E-16));
#655=DIRECTION('ref_axis',(-1.01312882552395E-15,0.,1.));
#656=DIRECTION('',(0.707141897733096,0.707071662895944,0.));
#657=DIRECTION('',(-5.03130545380937E-20,-1.01307850747173E-15,-1.));
#658=DIRECTION('',(-0.707141897733096,-0.707071662895944,0.));
#659=DIRECTION('center_axis',(-4.96635296221006E-5,-0.999999998766767,0.));
#660=DIRECTION('ref_axis',(-0.707106780314522,3.51174185811639E-5,0.707106781186545));
#661=DIRECTION('center_axis',(4.96635296326725E-5,0.999999998766767,-1.01307850872109E-15));
#662=DIRECTION('ref_axis',(-0.707106780314522,3.5117418580774E-5,0.707106781186545));
#663=DIRECTION('',(3.51174185734469E-5,0.70710678031453,-0.707106781186537));
#664=DIRECTION('center_axis',(-4.96635296326725E-5,-0.999999998766767,1.01307850872109E-15));
#665=DIRECTION('ref_axis',(-0.707106780314522,3.51174185816382E-5,0.707106781186545));
#666=DIRECTION('center_axis',(3.51174185809219E-5,0.707106780314522,0.707106781186545));
#667=DIRECTION('ref_axis',(0.999999998766767,0.,-4.96635295714261E-5));
#668=DIRECTION('',(3.51174185812975E-5,0.707106780314517,-0.707106781186551));
#669=DIRECTION('',(-0.999999998766767,4.96635296326725E-5,3.00926553810506E-35));
#670=DIRECTION('',(0.999999998766767,-4.96635296326725E-5,-3.00926553810506E-35));
#671=DIRECTION('center_axis',(-4.96635296332044E-5,-0.999999998766767,0.));
#672=DIRECTION('ref_axis',(0.70710678031452,-3.51174185797516E-5,0.707106781186547));
#673=DIRECTION('center_axis',(4.96635296326725E-5,0.999999998766767,-1.01307850872109E-15));
#674=DIRECTION('ref_axis',(0.707106780314521,-3.51174185793784E-5,0.707106781186547));
#675=DIRECTION('',(-0.707071662895939,0.707141897733101,0.));
#676=DIRECTION('center_axis',(-4.96635296326725E-5,-0.999999998766767,1.01307850872109E-15));
#677=DIRECTION('ref_axis',(0.70710678031452,-3.51174185802054E-5,0.707106781186547));
#678=DIRECTION('center_axis',(0.707141897733102,0.707071662895938,-7.16354683391038E-16));
#679=DIRECTION('ref_axis',(-1.01302819941439E-15,0.,-1.));
#680=DIRECTION('',(-0.707071662895938,0.707141897733102,0.));
#681=DIRECTION('',(5.03130545380937E-20,1.01307850747173E-15,1.));
#682=DIRECTION('',(-5.03130545380937E-20,-1.01307850747173E-15,-1.));
#683=DIRECTION('center_axis',(-4.96635296332047E-5,-0.999999998766767,0.));
#684=DIRECTION('ref_axis',(0.707106780314521,-3.51174185814434E-5,-0.707106781186546));
#685=DIRECTION('',(3.51174185734473E-5,0.707106780314516,0.707106781186551));
#686=DIRECTION('center_axis',(-4.96635296326725E-5,-0.999999998766767,1.01307850872109E-15));
#687=DIRECTION('ref_axis',(0.707106780314521,-3.51174185816382E-5,-0.707106781186546));
#688=DIRECTION('center_axis',(3.51174185809217E-5,0.707106780314519,-0.707106781186549));
#689=DIRECTION('ref_axis',(-0.999999998766767,0.,-4.96635295714256E-5));
#690=DIRECTION('',(3.51174185734469E-5,0.707106780314521,0.707106781186546));
#691=DIRECTION('',(0.999999998766767,-4.96635296326725E-5,-3.00926553810506E-35));
#692=DIRECTION('center_axis',(-4.96635296221012E-5,-0.999999998766767,0.));
#693=DIRECTION('ref_axis',(-0.707106780314519,3.51174185797079E-5,-0.707106781186548));
#694=DIRECTION('center_axis',(-4.96635296326725E-5,-0.999999998766767,1.01307850872109E-15));
#695=DIRECTION('ref_axis',(-0.707106780314519,3.51174185802054E-5,-0.707106781186548));
#696=DIRECTION('center_axis',(4.96635296318715E-5,0.999999998766767,-8.88178419700125E-16));
#697=DIRECTION('ref_axis',(0.707106780314521,-3.51174185793784E-5,0.707106781186547));
#698=DIRECTION('',(4.96635296318715E-5,0.999999998766767,-8.88178419700125E-16));
#699=DIRECTION('',(-4.96635296318715E-5,-0.999999998766767,8.88178419700125E-16));
#700=DIRECTION('center_axis',(4.41100752658774E-20,8.88178418604794E-16,
1.));
#701=DIRECTION('ref_axis',(0.999999998766767,-4.96635296326725E-5,-3.00926553810506E-35));
#702=DIRECTION('',(4.96635296318715E-5,0.999999998766767,-8.88178419700125E-16));
#703=DIRECTION('center_axis',(4.96635296318715E-5,0.999999998766767,-8.88178419700125E-16));
#704=DIRECTION('ref_axis',(-0.707106780314522,3.5117418580774E-5,0.707106781186545));
#705=DIRECTION('center_axis',(4.96635296326725E-5,0.999999998766767,-1.01307850872109E-15));
#706=DIRECTION('ref_axis',(-0.999999998766767,4.96635296326725E-5,3.00926553810506E-35));
#707=DIRECTION('center_axis',(-4.96635296326725E-5,-0.999999998766767,1.01307850872109E-15));
#708=DIRECTION('ref_axis',(-0.999999998766767,4.96635296326725E-5,3.00926553810506E-35));
#709=DIRECTION('center_axis',(-4.96635296326725E-5,-0.999999998766767,1.01307850872109E-15));
#710=DIRECTION('ref_axis',(-0.999999998766767,4.96635296326725E-5,3.00926553810506E-35));
#711=DIRECTION('center_axis',(-4.96635296326725E-5,-0.999999998766767,1.01307850872109E-15));
#712=DIRECTION('ref_axis',(-0.999999998766767,4.96635296326725E-5,3.00926553810506E-35));
#713=DIRECTION('center_axis',(-4.96635296326725E-5,-0.999999998766767,1.01307850872109E-15));
#714=DIRECTION('ref_axis',(-0.999999998766767,4.96635296326725E-5,3.00926553810506E-35));
#715=DIRECTION('center_axis',(0.999999998766767,-4.96635296318715E-5,-8.1150863766079E-31));
#716=DIRECTION('ref_axis',(-5.03130545380937E-20,-1.01307850747173E-15,
-1.));
#717=DIRECTION('center_axis',(4.96635296318715E-5,0.999999998766767,-8.88178419700125E-16));
#718=DIRECTION('ref_axis',(-0.999999998766767,4.96635296318715E-5,7.11463455371101E-31));
#719=DIRECTION('',(-4.96635296318715E-5,-0.999999998766767,8.88178419700125E-16));
#720=DIRECTION('center_axis',(4.96635296318715E-5,0.999999998766767,-8.88178419700125E-16));
#721=DIRECTION('ref_axis',(-0.999999998766767,4.96635296318715E-5,7.11463455371104E-31));
#722=DIRECTION('',(-4.96635296318715E-5,-0.999999998766767,8.88178419700125E-16));
#723=DIRECTION('center_axis',(4.96635296318715E-5,0.999999998766767,-8.88178419700125E-16));
#724=DIRECTION('ref_axis',(-0.999999998766767,4.96635296318715E-5,7.11460589403925E-31));
#725=DIRECTION('',(-4.96635296318715E-5,-0.999999998766767,8.88178419700125E-16));
#726=DIRECTION('center_axis',(4.96635296318715E-5,0.999999998766767,-8.88178419700125E-16));
#727=DIRECTION('ref_axis',(-0.999999998766767,4.96635296318715E-5,7.11460589403925E-31));
#728=DIRECTION('',(-4.96635296318715E-5,-0.999999998766767,8.88178419700125E-16));
#729=CARTESIAN_POINT('',(0.,0.,0.));
#730=CARTESIAN_POINT('Origin',(-84.1787609716412,-18.6773339418999,-31.3965683936978));
#731=CARTESIAN_POINT('',(-84.578741105736,-18.2773140769814,-35.6965683936978));
#732=CARTESIAN_POINT('',(-83.7787808375463,-19.0773538068185,-35.6965683936978));
#733=CARTESIAN_POINT('',(-84.578741105736,-18.2773140769814,-35.6965683936978));
#734=CARTESIAN_POINT('',(-83.7787808375463,-19.0773538068185,-13.3965683936978));
#735=CARTESIAN_POINT('',(-83.7787808375463,-19.0773538068185,-31.3965683936978));
#736=CARTESIAN_POINT('',(-84.578741105736,-18.2773140769813,-13.3965683936978));
#737=CARTESIAN_POINT('',(-83.7787808375463,-19.0773538068185,-13.3965683936978));
#738=CARTESIAN_POINT('',(-84.578741105736,-18.2773140769814,-31.3965683936978));
#739=CARTESIAN_POINT('Origin',(-81.3787609750942,-18.6774729997829,-35.6965683936978));
#740=CARTESIAN_POINT('',(-81.3787411096824,-18.2774730002762,-38.8965683936978));
#741=CARTESIAN_POINT('Origin',(-81.3787411096824,-18.2774730002762,-35.6965683936978));
#742=CARTESIAN_POINT('',(-81.3787808405061,-19.0774729992896,-38.0965683936978));
#743=CARTESIAN_POINT('',(-81.3787411096824,-18.2774730002762,-38.8965683936978));
#744=CARTESIAN_POINT('Origin',(-81.3787808405061,-19.0774729992896,-35.6965683936978));
#745=CARTESIAN_POINT('Origin',(-69.2037609901308,-18.6780776532562,-38.4965683936978));
#746=CARTESIAN_POINT('',(-67.2787411271003,-18.278173256044,-38.8965683936978));
#747=CARTESIAN_POINT('',(-67.278780857924,-19.0781732550574,-38.0965683936978));
#748=CARTESIAN_POINT('',(-67.2787411271003,-18.278173256044,-38.8965683936978));
#749=CARTESIAN_POINT('',(-69.2037808555427,-19.0780776527629,-38.0965683936978));
#750=CARTESIAN_POINT('',(-69.203741124719,-18.2780776537495,-38.8965683936978));
#751=CARTESIAN_POINT('Origin',(-67.2787609925121,-18.6781732555507,-35.6965683936978));
#752=CARTESIAN_POINT('',(-64.0787411310466,-18.2783321793388,-35.6965683936978));
#753=CARTESIAN_POINT('Origin',(-67.2787411271003,-18.278173256044,-35.6965683936978));
#754=CARTESIAN_POINT('',(-64.8787808608837,-19.0782924475285,-35.6965683936978));
#755=CARTESIAN_POINT('',(-64.0787411310466,-18.2783321793388,-35.6965683936978));
#756=CARTESIAN_POINT('Origin',(-67.278780857924,-19.0781732550574,-35.6965683936978));
#757=CARTESIAN_POINT('Origin',(-64.4787609959652,-18.6783123134337,-16.3965683936978));
#758=CARTESIAN_POINT('',(-64.0787411310466,-18.2783321793388,-13.3965683936978));
#759=CARTESIAN_POINT('',(-64.8787808608837,-19.0782924475285,-13.3965683936978));
#760=CARTESIAN_POINT('',(-64.0787411310466,-18.2783321793388,-13.3965683936978));
#761=CARTESIAN_POINT('',(-64.8787808608837,-19.0782924475285,-16.3965683936978));
#762=CARTESIAN_POINT('',(-64.0787411310466,-18.2783321793388,-16.3965683936978));
#763=CARTESIAN_POINT('Origin',(-68.5787609909089,-18.6781086929622,-13.3965683936978));
#764=CARTESIAN_POINT('',(-68.5787411254971,-18.2781086934555,-8.89656839369779));
#765=CARTESIAN_POINT('Origin',(-68.5787411254971,-18.2781086934555,-13.3965683936978));
#766=CARTESIAN_POINT('',(-68.5787808563208,-19.0781086924689,-9.69656839369779));
#767=CARTESIAN_POINT('',(-68.5787411254971,-18.2781086934555,-8.89656839369779));
#768=CARTESIAN_POINT('Origin',(-68.5787808563208,-19.0781086924689,-13.3965683936978));
#769=CARTESIAN_POINT('Origin',(-79.4537609774755,-18.6775686020774,-9.29656839369779));
#770=CARTESIAN_POINT('',(-80.0787411112856,-18.2775375628647,-8.89656839369779));
#771=CARTESIAN_POINT('',(-80.0787808421093,-19.0775375618781,-9.69656839369779));
#772=CARTESIAN_POINT('',(-80.0787411112856,-18.2775375628647,-8.89656839369779));
#773=CARTESIAN_POINT('',(-79.4537808428874,-19.0775686015841,-9.69656839369779));
#774=CARTESIAN_POINT('',(-79.4537411120637,-18.2775686025707,-8.89656839369779));
#775=CARTESIAN_POINT('Origin',(-80.0787609766974,-18.6775375623714,-13.3965683936978));
#776=CARTESIAN_POINT('Origin',(-80.0787411112856,-18.2775375628647,-13.3965683936978));
#777=CARTESIAN_POINT('Origin',(-80.0787808421093,-19.0775375618781,-13.3965683936978));
#778=CARTESIAN_POINT('Origin',(-67.278780857924,-19.0781732550574,-35.6965683936978));
#779=CARTESIAN_POINT('',(-67.2785722710995,-14.878173260237,-38.8965683936978));
#780=CARTESIAN_POINT('',(-67.278780857924,-19.0781732550574,-38.8965683936978));
#781=CARTESIAN_POINT('',(-64.0785722750459,-14.8783321835318,-35.6965683936978));
#782=CARTESIAN_POINT('Origin',(-67.2785722710995,-14.878173260237,-35.6965683936978));
#783=CARTESIAN_POINT('',(-64.0787808618703,-19.0783321783523,-35.6965683936978));
#784=CARTESIAN_POINT('Origin',(-64.0787808618703,-19.0783321783523,-38.8965683936978));
#785=CARTESIAN_POINT('',(-81.3785722536816,-14.8774730044692,-38.8965683936978));
#786=CARTESIAN_POINT('',(-81.3787808405061,-19.0774729992896,-38.8965683936978));
#787=CARTESIAN_POINT('',(-69.2035722687182,-14.8780776579425,-38.8965683936978));
#788=CARTESIAN_POINT('Origin',(-81.3787808405061,-19.0774729992896,-35.6965683936978));
#789=CARTESIAN_POINT('',(-84.5785722497353,-14.8773140811744,-35.6965683936978));
#790=CARTESIAN_POINT('',(-84.5787808365597,-19.0773140759948,-35.6965683936978));
#791=CARTESIAN_POINT('Origin',(-81.3785722536816,-14.8774730044692,-35.6965683936978));
#792=CARTESIAN_POINT('Origin',(-84.5787808365597,-19.0773140759948,-38.8965683936978));
#793=CARTESIAN_POINT('',(-84.5785722497353,-14.8773140811743,-13.3965683936978));
#794=CARTESIAN_POINT('',(-84.5787808365597,-19.0773140759948,-13.3965683936978));
#795=CARTESIAN_POINT('',(-84.5785722497353,-14.8773140811744,-31.3965683936978));
#796=CARTESIAN_POINT('Origin',(-74.328780849215,-19.0778231271735,-23.8965683936978));
#797=CARTESIAN_POINT('',(-77.8287808448841,-19.0776493048198,-33.8965683936978));
#798=CARTESIAN_POINT('Origin',(-79.5787808427259,-19.0775623936429,-33.8965683936978));
#799=CARTESIAN_POINT('',(-67.3287808578623,-19.0781707718809,-33.8965683936978));
#800=CARTESIAN_POINT('Origin',(-69.0787808557042,-19.0780838607041,-33.8965683936978));
#801=CARTESIAN_POINT('',(-77.3287808455007,-19.0776741365846,-13.8965932030058));
#802=CARTESIAN_POINT('Origin',(-79.5787808427259,-19.0775623936429,-13.8965932030058));
#803=CARTESIAN_POINT('',(-66.8287808584789,-19.0781956036457,-13.8965683936978));
#804=CARTESIAN_POINT('Origin',(-69.0787808557042,-19.0780838607041,-13.8965683936978));
#805=CARTESIAN_POINT('Origin',(-84.1785523848167,-14.4773339470795,-31.3965683936978));
#806=CARTESIAN_POINT('',(-83.7785325198982,-14.0773538129846,-13.3965683936978));
#807=CARTESIAN_POINT('',(-84.5785722497353,-14.8773140811743,-13.3965683936978));
#808=CARTESIAN_POINT('',(-83.7785325198982,-14.0773538129847,-35.6965683936978));
#809=CARTESIAN_POINT('',(-83.7785325198982,-14.0773538129847,-31.3965683936978));
#810=CARTESIAN_POINT('',(-83.7785325198982,-14.0773538129847,-35.6965683936978));
#811=CARTESIAN_POINT('Origin',(-80.078552389873,-14.477537567551,-13.3965683936978));
#812=CARTESIAN_POINT('',(-80.0785722552848,-14.8775375670577,-8.89656839369779));
#813=CARTESIAN_POINT('Origin',(-80.0785722552848,-14.8775375670577,-13.3965683936978));
#814=CARTESIAN_POINT('',(-80.0785325244611,-14.0775375680443,-9.69656839369778));
#815=CARTESIAN_POINT('',(-80.0785722552848,-14.8775375670577,-8.89656839369779));
#816=CARTESIAN_POINT('Origin',(-80.0785325244611,-14.0775375680443,-13.3965683936978));
#817=CARTESIAN_POINT('Origin',(-79.4535523906511,-14.477568607257,-9.29656839369779));
#818=CARTESIAN_POINT('',(-68.5785722694963,-14.8781086976485,-8.89656839369779));
#819=CARTESIAN_POINT('',(-68.5785325386726,-14.078108698635,-9.6965683936978));
#820=CARTESIAN_POINT('',(-68.5785722694963,-14.8781086976485,-8.89656839369779));
#821=CARTESIAN_POINT('',(-79.4535325252392,-14.0775686077503,-9.6965683936978));
#822=CARTESIAN_POINT('',(-79.4535722560629,-14.8775686067637,-8.89656839369779));
#823=CARTESIAN_POINT('Origin',(-68.5785524040845,-14.4781086981418,-13.3965683936978));
#824=CARTESIAN_POINT('',(-64.0785722750459,-14.8783321835318,-13.3965683936978));
#825=CARTESIAN_POINT('Origin',(-68.5785722694963,-14.8781086976485,-13.3965683936978));
#826=CARTESIAN_POINT('',(-64.8785325432356,-14.0782924536947,-13.3965683936978));
#827=CARTESIAN_POINT('',(-64.0785722750459,-14.8783321835318,-13.3965683936978));
#828=CARTESIAN_POINT('Origin',(-68.5785325386726,-14.0781086986351,-13.3965683936978));
#829=CARTESIAN_POINT('Origin',(-64.4785524091407,-14.4783123186133,-16.3965683936978));
#830=CARTESIAN_POINT('',(-64.8785325432356,-14.0782924536947,-35.6965683936978));
#831=CARTESIAN_POINT('',(-64.0785722750459,-14.8783321835318,-35.6965683936978));
#832=CARTESIAN_POINT('',(-64.8785325432356,-14.0782924536947,-16.3965683936978));
#833=CARTESIAN_POINT('',(-64.0785722750459,-14.8783321835318,-16.3965683936978));
#834=CARTESIAN_POINT('Origin',(-67.2785524056877,-14.4781732607303,-35.6965683936978));
#835=CARTESIAN_POINT('',(-67.2785325402758,-14.0781732612236,-38.0965683936978));
#836=CARTESIAN_POINT('',(-67.2785722710995,-14.878173260237,-38.8965683936978));
#837=CARTESIAN_POINT('Origin',(-67.2785325402758,-14.0781732612236,-35.6965683936978));
#838=CARTESIAN_POINT('Origin',(-69.2035524033064,-14.4780776584358,-38.4965683936978));
#839=CARTESIAN_POINT('',(-81.3785325228579,-14.0774730054558,-38.0965683936978));
#840=CARTESIAN_POINT('',(-81.3785722536816,-14.8774730044692,-38.8965683936978));
#841=CARTESIAN_POINT('',(-69.2035325378945,-14.0780776589291,-38.0965683936978));
#842=CARTESIAN_POINT('Origin',(-81.3785523882698,-14.4774730049625,-35.6965683936978));
#843=CARTESIAN_POINT('Origin',(-81.3785325228579,-14.0774730054558,-35.6965683936978));
#844=CARTESIAN_POINT('Origin',(-68.5787808563208,-19.0781086924689,-13.3965683936978));
#845=CARTESIAN_POINT('',(-64.0787808618703,-19.0783321783522,-13.3965683936978));
#846=CARTESIAN_POINT('',(-68.5787808563208,-19.0781086924689,-8.89656839369779));
#847=CARTESIAN_POINT('Origin',(-84.5787808365597,-19.0773140759948,-8.89656839369779));
#848=CARTESIAN_POINT('',(-80.0787808421093,-19.0775375618781,-8.89656839369779));
#849=CARTESIAN_POINT('Origin',(-80.0787808421093,-19.0775375618781,-13.3965683936978));
#850=CARTESIAN_POINT('Origin',(-74.3285325315669,-14.0778231333397,-23.8965683936978));
#851=CARTESIAN_POINT('',(-77.8285325272359,-14.077649310986,-33.8965683936978));
#852=CARTESIAN_POINT('Origin',(-79.5785325250777,-14.0775623998091,-33.8965683936978));
#853=CARTESIAN_POINT('',(-67.3285325402142,-14.0781707780471,-33.8965683936978));
#854=CARTESIAN_POINT('Origin',(-69.078532538056,-14.0780838668703,-33.8965683936978));
#855=CARTESIAN_POINT('',(-77.3285325278525,-14.0776741427508,-13.8965932030058));
#856=CARTESIAN_POINT('Origin',(-79.5785325250777,-14.0775623998091,-13.8965932030058));
#857=CARTESIAN_POINT('',(-66.8285325408308,-14.0781956098119,-13.8965683936978));
#858=CARTESIAN_POINT('Origin',(-69.078532538056,-14.0780838668702,-13.8965683936978));
#859=CARTESIAN_POINT('Origin',(-64.0787808618703,-19.0783321783522,-8.89656839369779));
#860=CARTESIAN_POINT('Origin',(-79.5787808427259,-19.0775623936429,-33.8965683936978));
#861=CARTESIAN_POINT('',(-77.8287808448841,-19.0776493048198,-33.8965683936978));
#862=CARTESIAN_POINT('Origin',(-69.0787808557042,-19.0780838607041,-33.8965683936978));
#863=CARTESIAN_POINT('',(-67.3287808578623,-19.0781707718809,-33.8965683936978));
#864=CARTESIAN_POINT('Origin',(-79.5787808427259,-19.0775623936429,-13.8965932030058));
#865=CARTESIAN_POINT('',(-77.3287808455007,-19.0776741365846,-13.8965932030058));
#866=CARTESIAN_POINT('Origin',(-69.0787808557042,-19.0780838607041,-13.8965683936978));
#867=CARTESIAN_POINT('',(-66.828780858479,-19.0781956036457,-13.8965683936978));
#868=UNCERTAINTY_MEASURE_WITH_UNIT(LENGTH_MEASURE(0.01),#872,
'DISTANCE_ACCURACY_VALUE',
'Maximum model space distance between geometric entities at asserted c
onnectivities');
#869=UNCERTAINTY_MEASURE_WITH_UNIT(LENGTH_MEASURE(0.01),#872,
'DISTANCE_ACCURACY_VALUE',
'Maximum model space distance between geometric entities at asserted c
onnectivities');
#870=(
GEOMETRIC_REPRESENTATION_CONTEXT(3)
GLOBAL_UNCERTAINTY_ASSIGNED_CONTEXT((#868))
GLOBAL_UNIT_ASSIGNED_CONTEXT((#872,#874,#875))
REPRESENTATION_CONTEXT('','3D')
);
#871=(
GEOMETRIC_REPRESENTATION_CONTEXT(3)
GLOBAL_UNCERTAINTY_ASSIGNED_CONTEXT((#869))
GLOBAL_UNIT_ASSIGNED_CONTEXT((#872,#874,#875))
REPRESENTATION_CONTEXT('','3D')
);
#872=(
LENGTH_UNIT()
NAMED_UNIT(*)
SI_UNIT(.MILLI.,.METRE.)
);
#873=(
LENGTH_UNIT()
NAMED_UNIT(*)
SI_UNIT($,.METRE.)
);
#874=(
NAMED_UNIT(*)
PLANE_ANGLE_UNIT()
SI_UNIT($,.RADIAN.)
);
#875=(
NAMED_UNIT(*)
SI_UNIT($,.STERADIAN.)
SOLID_ANGLE_UNIT()
);
#876=SHAPE_DEFINITION_REPRESENTATION(#877,#878);
#877=PRODUCT_DEFINITION_SHAPE('',$,#880);
#878=SHAPE_REPRESENTATION('',(#520),#870);
#879=PRODUCT_DEFINITION_CONTEXT('part definition',#884,'design');
#880=PRODUCT_DEFINITION('Mount','Mount',#881,#879);
#881=PRODUCT_DEFINITION_FORMATION('',$,#886);
#882=PRODUCT_RELATED_PRODUCT_CATEGORY('Mount','Mount',(#886));
#883=APPLICATION_PROTOCOL_DEFINITION('international standard',
'automotive_design',2009,#884);
#884=APPLICATION_CONTEXT(
'Core Data for Automotive Mechanical Design Process');
#885=PRODUCT_CONTEXT('part definition',#884,'mechanical');
#886=PRODUCT('Mount','Mount',$,(#885));
#887=PRESENTATION_STYLE_ASSIGNMENT((#888));
#888=SURFACE_STYLE_USAGE(.BOTH.,#889);
#889=SURFACE_SIDE_STYLE('',(#890));
#890=SURFACE_STYLE_FILL_AREA(#891);
#891=FILL_AREA_STYLE('Steel - Satin',(#892));
#892=FILL_AREA_STYLE_COLOUR('Steel - Satin',#893);
#893=COLOUR_RGB('Steel - Satin',0.627450980392157,0.627450980392157,0.627450980392157);
ENDSEC;
END-ISO-10303-21;
